<?xml version="1.0" encoding="utf-8"?>
<!-- Generator: Adobe Illustrator 24.1.0, SVG Export Plug-In . SVG Version: 6.00 Build 0)  -->
<svg version="1.1" id="Layer_1" xmlns="http://www.w3.org/2000/svg" xmlns:xlink="http://www.w3.org/1999/xlink" x="0px" y="0px"
	 viewBox="0 0 236 40" style="enable-background:new 0 0 236 40;" xml:space="preserve">
<style type="text/css">
	.st0{fill-rule:evenodd;clip-rule:evenodd;fill:#FFFFFF;}
</style>
<desc>Created with Sketch.</desc>
<g id="Symbols">
	<g id="Header_x2F_Desktop_x2F_Main" transform="translate(-602.000000, -33.000000)">
		<g id="Navigation">
			<path id="Combined-Shape" class="st0" d="M604.3,36.3l10.1,30.5l13.4-32.3l13.4,32.3l9.9-30.5h2.3l-12,36.7l-13.7-32.8L614,73
				l-12-36.7H604.3z M657.5,33h2.1v20.5h0.1c0.6-1.2,1.5-2.2,2.7-2.8c1.1-0.7,2.4-1,3.8-1c2.7,0,4.6,0.8,5.6,2.3
				c1.1,1.5,1.6,3.8,1.6,6.8v13.1h-2.1V58.7c0-1.1-0.1-2.1-0.2-2.9c-0.1-0.8-0.3-1.5-0.7-2.2c-0.4-0.6-0.9-1.1-1.6-1.5
				c-0.7-0.4-1.6-0.5-2.8-0.5c-1.3,0-2.4,0.3-3.2,0.8s-1.5,1.3-2,2.2c-0.4,0.9-0.8,1.9-0.9,3c-0.2,1.1-0.3,2.3-0.3,3.5v10.7h-2.1V33
				z M683.7,50.1v21.7h-2.1V50.1H683.7z M684,41.5c0.4,0.4,0.6,0.8,0.6,1.4c0,0.5-0.2,1-0.6,1.4s-0.8,0.6-1.4,0.6s-1-0.2-1.4-0.6
				s-0.6-0.8-0.6-1.4c0-0.5,0.2-1,0.6-1.4s0.8-0.6,1.4-0.6S683.6,41.1,684,41.5z M694.2,52.1v19.8h-2.1V52.1h-2.4v-2h2.4v-7.8h2.1
				v7.8h3.8v2H694.2z M720.8,61.1h-19c0,2.8,0.8,5,2.5,6.7c1.7,1.7,3.8,2.5,6.3,2.5c1.7,0,3.2-0.4,4.5-1.3s2.4-2.1,3.2-3.6l1.8,1
				c-1,1.9-2.3,3.3-4,4.4c-1.7,1-3.6,1.5-5.8,1.5c-1.6,0-3-0.3-4.3-0.9c-1.3-0.6-2.4-1.4-3.4-2.5s-1.7-2.3-2.2-3.6
				c-0.5-1.4-0.7-2.8-0.7-4.4c0-1.5,0.3-3,0.8-4.3c0.5-1.3,1.2-2.5,2.2-3.6c0.9-1.1,2.1-1.9,3.4-2.5s2.7-0.9,4.3-0.9
				c1.6,0,3.1,0.3,4.4,0.9c1.3,0.6,2.4,1.4,3.3,2.5s1.6,2.3,2.1,3.7C720.6,58.1,720.8,59.6,720.8,61.1z M701.8,59.2h16.9
				c-0.1-1-0.4-2-0.9-2.9c-0.5-0.9-1.1-1.7-1.8-2.4c-0.7-0.7-1.6-1.3-2.6-1.7c-1-0.4-2-0.6-3.1-0.6c-1.1,0-2.2,0.2-3.1,0.6
				c-1,0.4-1.9,0.9-2.7,1.6c-0.8,0.7-1.4,1.5-1.9,2.4C702.1,57.2,701.9,58.2,701.8,59.2z M804.9,40v3.1c-1.4-1.7-3.2-3-5.4-4
				c-2.2-1-4.5-1.6-6.7-1.6c-2.2,0-4.3,0.4-6.3,1.3c-2,0.9-3.7,2.1-5.3,3.6c-1.5,1.5-2.7,3.3-3.6,5.3c-0.9,2-1.3,4-1.3,6.2
				c0,2,0.4,4,1.3,5.9c0.8,1.9,2,3.6,3.6,5.1c1.6,1.5,3.4,2.7,5.4,3.5c2,0.9,4.1,1.3,6.2,1.3c1.1,0,2.1-0.1,3.3-0.4
				c1.1-0.3,2.2-0.6,3.3-1.1c1.1-0.5,2.1-1.1,3.1-1.7c1-0.7,1.8-1.4,2.4-2.2v3.1c-1.7,1.4-3.6,2.5-5.6,3.3s-4.2,1.2-6.4,1.2
				c-2.5,0-4.8-0.5-7.1-1.4c-2.3-0.9-4.3-2.3-6-3.9c-1.8-1.7-3.1-3.6-4.1-5.8c-1-2.2-1.5-4.5-1.5-7c0-2.5,0.5-4.8,1.5-7
				c1-2.2,2.4-4.2,4.1-5.8c1.8-1.7,3.8-3,6-3.9c2.3-0.9,4.7-1.4,7.2-1.4c2.2,0,4.3,0.4,6.4,1.2S803.3,38.6,804.9,40z M819.5,49.1
				c1.6,0,3.1,0.3,4.5,0.8c1.4,0.6,2.7,1.4,3.7,2.4c1.1,1,1.9,2.2,2.5,3.6c0.6,1.4,0.9,2.9,0.9,4.5s-0.3,3.1-0.9,4.5
				s-1.4,2.6-2.5,3.6c-1.1,1-2.3,1.8-3.7,2.4s-2.9,0.8-4.5,0.8c-1.6,0-3-0.3-4.4-0.9s-2.6-1.4-3.7-2.4c-1.1-1-1.9-2.2-2.5-3.6
				c-0.6-1.4-0.9-2.8-0.9-4.3c0-1.5,0.3-3,0.9-4.4c0.6-1.4,1.4-2.6,2.5-3.6c1.1-1,2.3-1.8,3.7-2.4C816.4,49.4,817.9,49.1,819.5,49.1
				z M819.3,51.1c-1.3,0-2.5,0.3-3.6,0.8c-1.1,0.5-2.1,1.2-2.9,2.1c-0.8,0.9-1.5,1.9-1.9,3c-0.5,1.1-0.7,2.3-0.7,3.5
				s0.2,2.4,0.7,3.5c0.5,1.1,1.1,2.1,1.9,3c0.8,0.9,1.8,1.5,2.9,2s2.3,0.8,3.6,0.8c1.3,0,2.6-0.2,3.8-0.7c1.2-0.5,2.2-1.1,3.1-2
				c0.9-0.8,1.6-1.8,2.1-3c0.5-1.1,0.7-2.4,0.7-3.6c0-1.3-0.2-2.6-0.7-3.7c-0.5-1.2-1.2-2.2-2-3c-0.9-0.8-1.9-1.5-3.1-2
				C821.9,51.4,820.7,51.1,819.3,51.1z M836.6,68.7c0.4,0.4,0.5,0.8,0.5,1.3c0,0.5-0.2,0.9-0.5,1.3c-0.4,0.4-0.8,0.5-1.3,0.5
				c-0.5,0-0.9-0.2-1.3-0.5s-0.5-0.8-0.5-1.3c0-0.5,0.2-0.9,0.5-1.3c0.4-0.4,0.8-0.5,1.3-0.5C835.8,68.2,836.3,68.3,836.6,68.7z
				 M762,71.1l-4.4-5.8c-2.4,2-4.6,3.6-6.7,4.8c-2.1,1.2-4.2,1.7-6.3,1.7c-1.2,0-2.4-0.2-3.6-0.7s-2.1-1.1-3-2c-0.8-0.9-1.5-1.8-2-3
				c-0.5-1.1-0.7-2.3-0.7-3.6c0-1.4,0.3-2.7,0.9-4c0.6-1.2,1.4-2.3,2.4-3.3c1-1,2-1.9,3.1-2.6c1.1-0.8,2.4-1.6,4-2.6l0.3-0.2
				l-0.6-0.8c-1-1.4-1.8-2.5-2.3-3.6c-0.5-1-0.8-2.1-0.8-3.3c0-0.9,0.2-1.8,0.5-2.6c0.4-0.8,0.9-1.5,1.5-2.2
				c0.7-0.6,1.4-1.1,2.2-1.5c0.8-0.3,1.7-0.5,2.6-0.5c1.8,0,3.3,0.6,4.6,1.9c1.2,1.3,1.8,2.8,1.8,4.6c0,1.8-0.6,3.3-1.7,4.6
				c-1.1,1.2-2.8,2.6-4.9,4.1l8.7,11.8l4.5-4.9l1.7,0.9L759,64l5.4,7.1H762z M747.4,51.6l-2.2,1.5c-1.1,0.7-2.1,1.3-2.9,1.9
				c-0.8,0.6-1.5,1.2-2.3,2c-0.7,0.7-1.3,1.6-1.8,2.5c-0.4,0.9-0.7,1.9-0.7,2.9c0,2,0.7,3.7,2,5.2c1.3,1.5,3,2.2,5,2.2
				c1,0,2-0.2,3-0.6c1-0.4,2-0.9,3-1.4c1-0.6,1.9-1.2,2.8-1.9l2.9-2.3L747.4,51.6z M749.1,37.5c-1.2,0-2.3,0.5-3.2,1.5
				c-0.9,1-1.3,2.1-1.3,3.4c0,0.8,0.2,1.6,0.5,2.3s0.9,1.6,1.6,2.6c0.5,0.7,0.8,1.2,1,1.5c0.3-0.3,0.8-0.6,1.4-1
				c1.4-1,2.5-2,3.2-2.8c0.7-0.8,1.1-1.9,1.1-3.2c0-1.2-0.4-2.2-1.2-3.1C751.3,37.9,750.3,37.5,749.1,37.5z"/>
		</g>
	</g>
</g>
</svg>
